<?xml version="1.0" encoding="utf-8"?>
<!-- Generator: Adobe Illustrator 21.0.1, SVG Export Plug-In . SVG Version: 6.00 Build 0)  -->
<svg version="1.1" id="Capa_1" xmlns="http://www.w3.org/2000/svg" xmlns:xlink="http://www.w3.org/1999/xlink" x="0px" y="0px"
	 viewBox="0 0 1096 41.3" style="enable-background:new 0 0 1096 41.3;" xml:space="preserve">
<style type="text/css">
	.st0{fill:none;}
	.st1{fill:url(#SVGID_1_);}
</style>
<path d="M2221,26.2C2298.5,26.2,2142.4,25,2221,26.2L2221,26.2z"/>
<path class="st0" d="M-1098.3,196.5c0.5,0,1.1,0,1.6,0C-1134.9,195.8-1117.2,196.1-1098.3,196.5z"/>
<path d="M-1096.7,196.5c-0.5,0-1.1,0-1.6,0C-1078.6,196.8-1057.6,197.2-1096.7,196.5z"/>
<path d="M-1113.9,413.5C-1192.1,413.5-1036.9,414.7-1113.9,413.5L-1113.9,413.5z"/>
<path d="M2489.6,644.8C2510.9,644.8,2467.9,644.3,2489.6,644.8L2489.6,644.8z"/>
<linearGradient id="SVGID_1_" gradientUnits="userSpaceOnUse" x1="25.165" y1="20.1296" x2="1069.8262" y2="20.1296">
	<stop  offset="0" style="stop-color:#725839"/>
	<stop  offset="0.1045" style="stop-color:#7D6340"/>
	<stop  offset="0.2886" style="stop-color:#9B8054"/>
	<stop  offset="0.5146" style="stop-color:#C7AC72"/>
	<stop  offset="0.5521" style="stop-color:#C0A56D"/>
	<stop  offset="0.8541" style="stop-color:#886E48"/>
	<stop  offset="1" style="stop-color:#725839"/>
</linearGradient>
<path class="st1" d="M842.9,26.2l-39.5-4.1l-25.9,5.8c-30.1,0-49.1,9.4-49.1,9.4s-17.2-14.8-32.9-14.8c-23.9,0-34.4,9-34.4,9
	s-5.9-8.4-17.4-8.4c-6.3,0-10.8,5.8-10.8,5.8c-0.7-0.5-2.8-1.4-5.4-2.4c-6.4-2.6-13.3-4-20.2-4.1c-10.4-0.2-20.4,0.7-30.1,4.4
	c-10,3.9-19.3,6.9-29.8,7.2c-10.5-0.3-19.9-3.3-29.8-7.2c-9.7-3.7-19.7-4.6-30.1-4.4c-6.9,0.1-13.8,1.5-20.2,4.1
	c-2.5,1-4.7,2-5.4,2.4c0,0-4.5-5.8-10.8-5.8c-11.5,0-17.4,8.4-17.4,8.4s-10.4-9-34.4-9c-15.6,0-32.9,14.8-32.9,14.8
	s-19-9.4-49.1-9.4l-25.9-5.8l-39.5,4.1l-227-6l227-6.2l39.5,4.1l25.9-5.8c30.1,0,49.1-9.2,49.1-9.2s17.2,14.8,32.9,14.8
	c23.9,0,34.4-9,34.4-9s5.9,8.4,17.4,8.4c6.3,0,10.8-5.8,10.8-5.8c0.7,0.5,2.8,1.4,5.4,2.4c6.4,2.6,13.3,4,20.2,4.1
	c10.4,0.2,20.4-0.7,30.1-4.4c10-3.9,19.3-6.9,29.8-7.2c10.5,0.3,19.9,3.3,29.8,7.2c9.7,3.7,19.7,4.6,30.1,4.4
	c6.9-0.1,13.8-1.5,20.2-4.1c2.5-1,4.7-2,5.4-2.4c0,0,4.5,5.8,10.8,5.8c11.5,0,17.4-8.4,17.4-8.4s10.4,9,34.4,9
	c15.6,0,32.9-14.8,32.9-14.8s19,9.2,49.1,9.2l25.9,5.8l39.5-4.1l227,6.2L842.9,26.2z"/>
	  <defs>
    <filter id="f3" x="0" y="0" width="200%" height="200%">
      <feOffset result="offOut" in="SourceAlpha" dx="20" dy="20" />
      <feGaussianBlur result="blurOut" in="offOut" stdDeviation="10" />
      <feBlend in="SourceGraphic" in2="blurOut" mode="normal" />
    </filter>
  </defs>
</svg>


