<?xml version="1.0" encoding="utf-8"?>
<!-- Generator: Adobe Illustrator 21.0.1, SVG Export Plug-In . SVG Version: 6.00 Build 0)  -->
<svg version="1.1" id="Layer_1" xmlns="http://www.w3.org/2000/svg" xmlns:xlink="http://www.w3.org/1999/xlink" x="0px" y="0px"
	 viewBox="0 0 491.5 491.5" style="enable-background:new 0 0 491.5 491.5;" xml:space="preserve">
<style type="text/css">
	.st0{fill:#D2AF6F;}
	.st1{fill:#151212;}
</style>
<g id="Layer_x0020_1">
	<path class="st0" d="M491.5,245.8c0,135.7-110,245.8-245.8,245.8C110,491.5,0,381.5,0,245.8C0,110,110,0,245.8,0
		C381.5,0,491.5,110,491.5,245.8L491.5,245.8z"/>
	<path class="st1" d="M457.9,245.8c0,117.1-95,212.1-212.1,212.1s-212.1-95-212.1-212.1s95-212.1,212.1-212.1
		S457.9,128.6,457.9,245.8z"/>
	<path class="st0" d="M389.8,188c0-0.1,0-0.2,0-0.3v-30.8c0-6.6-5.4-12-12-12h-39c-0.2,0-0.4,0-0.6,0H152.7h-7.9h-31
		c-6.6,0-12,5.4-12,12V188v115.5v31.1c0,6.6,5.4,12,12,12h39c0.4,0,0.8,0,1.1-0.1h184c0.3,0,0.6,0,1,0h39c6.6,0,12-5.4,12-12v-73.1
		L389.8,188L389.8,188z M217,294.5V186l82.3,54.2L217,294.5L217,294.5z"/>
</g>
</svg>
