<?xml version="1.0" encoding="utf-8"?>
<!-- Generator: Adobe Illustrator 21.0.1, SVG Export Plug-In . SVG Version: 6.00 Build 0)  -->
<svg version="1.1" id="Layer_1" xmlns="http://www.w3.org/2000/svg" xmlns:xlink="http://www.w3.org/1999/xlink" x="0px" y="0px"
	 viewBox="0 0 491.5 491.5" style="enable-background:new 0 0 491.5 491.5;" xml:space="preserve">
<style type="text/css">
	.st0{fill:#D2AF6F;}
	.st1{fill:#151212;}
</style>
<g id="Layer_x0020_1">
	<path class="st0" d="M491.5,245.8c0,135.7-110,245.8-245.8,245.8S0,381.5,0,245.8S110,0,245.8,0C381.5,0,491.5,110,491.5,245.8z"/>
	<path class="st1" d="M457.9,245.8c0,117.1-95,212.1-212.1,212.1s-212.1-95-212.1-212.1s95-212.1,212.1-212.1
		S457.9,128.6,457.9,245.8z"/>
	<path class="st0" d="M302.2,252.9h-39.4v144.3h-59.7V252.9h-28.4v-50.7h28.4v-32.8c0-23.5,11.1-60.2,60.2-60.2l44.2,0.2v49.2h-32.1
		c-5.3,0-12.7,2.6-12.7,13.8v29.9h44.6L302.2,252.9L302.2,252.9z"/>
</g>
</svg>
