<?xml version="1.0" encoding="utf-8"?>
<!-- Generator: Adobe Illustrator 21.0.1, SVG Export Plug-In . SVG Version: 6.00 Build 0)  -->
<svg version="1.1" id="Layer_1" xmlns="http://www.w3.org/2000/svg" xmlns:xlink="http://www.w3.org/1999/xlink" x="0px" y="0px"
	 viewBox="0 0 491.5 491.5" style="enable-background:new 0 0 491.5 491.5;" xml:space="preserve">
<style type="text/css">
	.st0{fill:#D2AF6F;}
	.st1{fill:#151212;}
</style>
<g id="Layer_x0020_1">
	<path class="st0" d="M491.5,245.8c0,135.7-110,245.8-245.8,245.8C110,491.5,0,381.5,0,245.8C0,110,110,0,245.8,0
		C381.5,0,491.5,110,491.5,245.8L491.5,245.8z"/>
	<path class="st1" d="M457.9,245.8c0,117.1-95,212.1-212.1,212.1s-212.1-95-212.1-212.1s95-212.1,212.1-212.1
		S457.9,128.6,457.9,245.8z"/>
	<path class="st0" d="M102.9,207.4h82c-32,52.7,4.6,122.1,70.8,115.6c40.4-3.9,77.4-47.3,61-96.7c-1-3.1-3.2-6.5-4.9-9.8
		c-1.6-3.1-4.3-6.8-3.5-9.1h81.3v135.2c-2.7,26.5-23.5,47.2-50.5,49.7H152.7c-27-2.8-47.1-25.2-49.7-49
		C102.9,343.4,102.9,230.9,102.9,207.4L102.9,207.4z"/>
	<path class="st0" d="M253.6,194.1c11,1.3,16.9,3.7,22.4,7c12.6,7.6,24.5,21.7,26.6,40.6c4.3,38.2-23.7,64.5-56.1,64.5
		c-25.8,0-57.1-18.4-56.8-56.8C190.1,214.5,218,189.8,253.6,194.1L253.6,194.1z M205.2,260.7c4.7,19.3,26.2,34,48.3,30.8
		c21.2-3,44-29.4,31.5-58.9c-4.6-10.9-15-23-36.4-24.5C222.3,206.3,197.8,229.8,205.2,260.7L205.2,260.7z"/>
	<path class="st0" d="M119,120.5c7.7-7.7,20.4-14.8,34.3-16.1h159.8v72.9H325v-72.9h7.4v72.9h11.9v-72.2c2.6,0.5,5.2,1.2,7.7,2.1
		v70.1h11.9v-64.5c3.8,2.3,7.1,5,9.9,7.7c15.8,15.8,17.1,43.1,16.1,77.8h-89c-3.6-0.8-7.9-5.3-11.2-7.7c-12-8.8-27.4-13.6-43.1-13.8
		h-0.4c-15.7,0.2-31.1,5-43.1,13.8c-3.3,2.4-7.6,6.9-11.2,7.7h-89C102.5,163.3,103.2,136.4,119,120.5L119,120.5z M131.3,167.8
		c0,4.1,3.3,7.4,7.4,7.4h30.8c4.1,0,7.4-3.3,7.4-7.4V137c0-4.1-3.3-7.4-7.4-7.4h-30.8c-4.1,0-7.4,3.3-7.4,7.4V167.8z"/>
</g>
</svg>
