<?xml version="1.0" encoding="utf-8"?>
<!-- Generator: Adobe Illustrator 21.0.1, SVG Export Plug-In . SVG Version: 6.00 Build 0)  -->
<svg version="1.1" id="Layer_1" xmlns="http://www.w3.org/2000/svg" xmlns:xlink="http://www.w3.org/1999/xlink" x="0px" y="0px"
	 viewBox="0 0 491.5 491.5" style="enable-background:new 0 0 491.5 491.5;" xml:space="preserve">
<style type="text/css">
	.st0{fill:#D2AF6F;}
	.st1{fill:#151212;}
</style>
<g id="Layer_x0020_1">
	<path class="st0" d="M491.5,245.8c0,135.7-110,245.8-245.8,245.8S0,381.5,0,245.8C0,110,110,0,245.8,0
		C381.5,0,491.5,110,491.5,245.8z"/>
	<path class="st1" d="M457.9,245.8c0,117.1-95,212.1-212.1,212.1s-212.1-95-212.1-212.1s95-212.1,212.1-212.1
		S457.9,128.6,457.9,245.8z"/>
	<path class="st0" d="M395.3,171.2c-10.6,4.7-22,7.9-33.9,9.3c12.2-7.3,21.6-18.9,26-32.7c-11.4,6.8-24.1,11.7-37.5,14.3
		c-10.8-11.5-26.1-18.7-43.1-18.7c-32.6,0-59.1,26.5-59.1,59.1c0,4.6,0.5,9.1,1.5,13.5c-49.1-2.5-92.6-26-121.8-61.8
		c-5.1,8.7-8,18.9-8,29.7c0,20.5,10.4,38.6,26.3,49.2c-9.7-0.3-18.8-3-26.8-7.4c0,0.3,0,0.5,0,0.8c0,28.6,20.4,52.5,47.4,57.9
		c-4.9,1.4-10.2,2.1-15.6,2.1c-3.8,0-7.5-0.4-11.1-1.1c7.5,23.5,29.4,40.6,55.2,41c-20.2,15.9-45.7,25.3-73.4,25.3
		c-4.8,0-9.5-0.3-14.1-0.8c26.1,16.8,57.2,26.5,90.6,26.5c108.7,0,168.1-90,168.1-168.1c0-2.6-0.1-5.1-0.2-7.6
		C377.4,193.4,387.4,183,395.3,171.2L395.3,171.2z"/>
</g>
</svg>
